<?xml version="1.0" encoding="iso-8859-1"?>
<!-- Uploaded to: SVG Repo, www.svgrepo.com, Generator: SVG Repo Mixer Tools -->
<svg fill="#000000" version="1.1" id="Layer_1" xmlns="http://www.w3.org/2000/svg" xmlns:xlink="http://www.w3.org/1999/xlink" 
	 viewBox="0 0 195.831 195.831" xml:space="preserve">
<g>
	<g>
		<g>
			<rect x="53.891" y="136.712" width="87.599" height="7.39"/>
			<path d="M168.12,14.78h-22.169V3.695c0-2.04-1.653-3.695-3.695-3.695H53.576c-2.042,0-3.695,1.655-3.695,3.695V14.78H27.712
				c-2.042,0-3.695,1.655-3.695,3.695v14.78c0,2.04,1.653,3.695,3.695,3.695h11.276l7.664,142.783
				c0.476,8.876,8.065,16.098,16.919,16.098h68.688c8.855,0,16.443-7.222,16.919-16.097l7.664-142.785h11.276
				c2.042,0,3.695-1.655,3.695-3.695v-14.78C171.815,16.434,170.161,14.78,168.12,14.78z M57.271,7.39h81.288v7.39H57.271V7.39z
				 M141.797,179.339c-0.267,5.019-4.547,9.102-9.537,9.102H63.571c-4.99,0-9.27-4.083-9.537-9.104l-4.471-83.269h96.704
				L141.797,179.339z M146.664,88.678H49.167l-2.778-51.729h103.053L146.664,88.678z M153.339,29.559H42.492H31.407v-7.39h22.169
				h88.678h22.169v7.39H153.339z"/>
		</g>
	</g>
</g>
</svg>