<svg width="650" height="575" viewBox="0 0 650 575" fill="none" xmlns="http://www.w3.org/2000/svg">
<path d="M550.44 75.5872H500.343C491.502 75.5872 482.869 76.7488 474.511 78.9954V24.7066C474.511 11.3258 463.625 0.44043 450.245 0.44043H24.4129C11.0321 0.44043 0.14679 11.3258 0.14679 24.7066V463.063C0.14679 493.482 22.2305 518.823 51.2043 523.943C56.3237 552.915 81.6654 575 112.084 575H362.573C392.992 575 418.334 552.915 423.453 523.943C452.427 518.823 474.511 493.482 474.511 463.063V421.297C482.869 423.545 491.503 424.707 500.343 424.707H550.44C605.257 424.707 649.853 380.11 649.853 325.294V175C649.853 120.184 605.257 75.5872 550.44 75.5872ZM474.511 175C474.511 160.757 486.099 149.168 500.343 149.168H550.44C564.684 149.168 576.272 160.757 576.272 175V325.294C576.272 339.537 564.684 351.125 550.44 351.125H500.343C486.099 351.125 474.511 339.537 474.511 325.294V175ZM362.573 551.517H112.084C95.029 551.517 80.5444 540.325 75.5738 524.902H399.085C394.113 540.325 379.629 551.517 362.573 551.517ZM451.027 463.063C451.027 484.212 433.82 501.419 412.671 501.419H61.9863C40.8372 501.419 23.6302 484.212 23.6302 463.063V24.7066C23.6302 24.2745 23.9808 23.9238 24.4129 23.9238H450.245C450.677 23.9238 451.027 24.2745 451.027 24.7066V463.063ZM626.37 325.294C626.37 367.161 592.308 401.223 550.44 401.223H500.343C491.408 401.223 482.753 399.689 474.511 396.699V367.279C482.029 371.921 490.877 374.607 500.343 374.607H550.44C577.633 374.607 599.755 352.484 599.755 325.292V174.999C599.755 147.806 577.633 125.683 550.44 125.683H500.343C490.877 125.683 482.029 128.37 474.511 133.012V103.592C482.752 100.602 491.406 99.069 500.343 99.069H550.44C592.308 99.069 626.37 133.131 626.37 174.999V325.294Z" fill="#AB462F"/>
</svg>
